# xmcd
#
# Track frame offsets:
#	150
#	15822
#	33317
#	64185
#	87107
#
# Disc length: 1478 seconds
#
# Revision: 0
# Processed by: cddbd v1.5.2PL0 Copyright (c) Steve Scherf et al.
# Submitted via: EasyCDDAExtractor 2010.6.0.0
#
DISCID=2c05c405
DTITLE=D.O.N.S. feat. Technotronic - Pump Up The Jam
DYEAR=1998
DGENRE=Dance
TTITLE0=Pump Up The Jam (Loop Radio Edit)
TTITLE1=Pump Up The Jam (Boys-R-Us Radio Edit)
TTITLE2=Pump Up The Jam (Rollercoaster's Pumped Up Jam Mix)
TTITLE3=Pump Up The Jam (Loop Remix)
TTITLE4=Pump Up The Jam (Greatski's Original Bootleg Remake)
EXTD=
EXTT0=
EXTT1=
EXTT2=
EXTT3=
EXTT4=
PLAYORDER=
